<svg width="44" height="28" viewBox="0 0 44 28" fill="none" xmlns="http://www.w3.org/2000/svg">
<path fill-rule="evenodd" clip-rule="evenodd" d="M11.7455 28C11.7455 28 8.85657 27.7013 7.03636 27.3333C5.441 27.0109 3 26.2983 3 26.2983C3 26.2983 5.34256 22.9908 7.07339 21.2984C8.65786 19.7491 9.72727 19 9.72727 19C9.72727 19 9.13352 19.6758 8.09174 21.2984C7.45987 22.2825 6.73394 23.965 6.73394 23.965C6.73394 23.965 16.9798 21.9693 23.367 21.9649C29.8639 21.9605 40 22.6316 40 22.6316L34.5688 25.965C34.5688 25.965 29.8639 24.6271 23.367 24.6316C16.9798 24.636 7.03636 25.6667 7.03636 25.6667C7.03636 25.6667 8.21572 26.5639 9.05454 27C10.0484 27.5167 11.7455 28 11.7455 28Z" fill="#F8E9E9"/>
<path d="M37.4368 10.716L39.3088 13.596L40.6888 10.332L43.1968 11.712L43.4488 17.604L40.9408 17.976L41.4448 11.964L39.0568 15.972L36.6808 12.216L37.6888 17.976L35.4328 17.724L35.0488 11.712L37.4368 10.716Z" fill="#F8E9E9"/>
<path d="M33.2546 10.752L34.9586 17.568L32.6906 18L32.4026 15.72L30.6986 15.444L30.4106 17.568L28.1426 17.712L30.4106 10.608L33.2546 10.752ZM30.8426 14.304L32.2586 14.448L31.9826 11.748H31.4066L30.8426 14.304Z" fill="#F8E9E9"/>
<path d="M24.4917 13.596L25.8597 10.98L27.5157 10.848L28.0677 11.94H26.4117L25.4517 14.7L27.5157 17.868L25.3077 18L24.4917 15.528L24.3477 18L23.2437 17.868L23.1117 15.384H22.8357L22.0077 18L19.8117 17.868L22.0077 14.556L20.7717 11.808L19.1157 12.768V10.98L20.6277 10.572L21.7317 10.704L23.1117 13.872V10.572H24.4797L24.4917 13.596Z" fill="#F8E9E9"/>
<path d="M17.3574 10.752L19.0614 17.568L16.7934 18L16.5054 15.72L14.8014 15.444L14.5134 17.568L12.2454 17.712L14.5134 10.608L17.3574 10.752ZM14.9454 14.304L16.3614 14.448L16.0854 11.748H15.5094L14.9454 14.304Z" fill="#F8E9E9"/>
<path d="M6.12476 10.812L12.7728 10.536L13.1808 12.84L10.0608 11.616L10.7448 17.184L7.34876 18L8.57276 12.168L6.40076 12.984L6.12476 10.812Z" fill="#F8E9E9"/>
<path d="M2.00389 13.008L0.647895 12.552L0.947895 11.496L2.61589 10.584H5.48389L6.09589 12.252V15.876L4.88389 18L1.40389 17.844L0.191895 15.732L2.00389 15.576L2.15989 16.488H3.97189L4.88389 14.82L2.91589 14.676V13.608L4.72789 13.464V12.096L3.51589 11.796L2.61589 11.952L2.00389 13.008Z" fill="#F8E9E9"/>
<path d="M37.1396 0.931997L39.0237 0.559998L39.1557 3.836L41.0396 0.931997L43.3196 0.811997L40.6677 3.464L43.5717 6.608L41.6757 7.616L40.0317 4.472L39.2757 5.228L40.0317 7.364L38.0157 8L37.1396 0.931997Z" fill="#F8E9E9"/>
<path d="M32.4901 0.440002L31.6261 6.716L32.9341 7.004V9.488L31.4701 9.344L31.7701 8.18L27.2461 8.024L27.3901 9.056L25.7821 9.344V8.18L25.4941 7.16L25.7821 6.716L26.5141 5.696L26.6581 1.028L32.4901 0.440002ZM28.1221 2.192L28.2661 5.408L27.6781 6.572L30.4501 6.716L30.8941 1.904L28.1221 2.192Z" fill="#F8E9E9"/>
<path d="M23.7241 0.751971L25.4281 7.56797L23.1601 7.99997L22.8721 5.71997L21.1681 5.44397L20.8801 7.56797L18.6121 7.71197L20.8801 0.607971L23.7241 0.751971ZM21.3121 4.30397L22.7281 4.44797L22.4521 1.74797H21.8761L21.3121 4.30397Z" fill="#F8E9E9"/>
<path d="M13.2114 3.27198L13.4394 1.37598L15.9354 0.427979L18.8874 1.72398L18.5274 2.79198L17.1114 3.73998L18.7674 3.85998L19.0074 5.86398L17.9394 7.53198L14.6274 7.99998L12.9714 5.75598L15.1074 5.15598L15.2154 6.58398L16.9914 6.46398L17.5914 4.80798L16.5234 4.92798L15.8154 3.61998L17.1114 2.32398L16.0434 1.49598L15.3354 1.96398V2.79198L13.2114 3.27198Z" fill="#F8E9E9"/>
<path d="M11.2253 0.751971L12.9293 7.56797L10.6613 7.99997L10.3733 5.71997L8.66928 5.44397L8.38128 7.56797L6.11328 7.71197L8.38128 0.607971L11.2253 0.751971ZM8.81328 4.30397L10.2293 4.44797L9.95328 1.74797H9.37728L8.81328 4.30397Z" fill="#F8E9E9"/>
<path d="M0.575969 0.607971L2.35197 1.01597L2.21997 3.33197L4.12797 3.59597L4.25997 1.01597L5.75997 1.27997L6.03597 7.68797L4.25997 7.96397L4.12797 5.09597L2.07597 4.55597V7.55597L0.167969 7.96397L0.575969 0.607971Z" fill="#F8E9E9"/>
</svg>
