<svg width="37" height="9" viewBox="0 0 37 9" fill="none" xmlns="http://www.w3.org/2000/svg">
<path fill-rule="evenodd" clip-rule="evenodd" d="M8.74545 9C8.74545 9 5.85657 8.70126 4.03636 8.33334C2.441 8.01086 0 7.29835 0 7.29835C0 7.29835 2.34256 3.99081 4.07339 2.29837C5.65786 0.749055 6.72727 0 6.72727 0C6.72727 0 6.13352 0.675789 5.09174 2.29837C4.45987 3.28251 3.73394 4.96503 3.73394 4.96503C3.73394 4.96503 13.9798 2.96933 20.367 2.96493C26.8639 2.96046 37 3.63159 37 3.63159L31.5688 6.96502C31.5688 6.96502 26.8639 5.62711 20.367 5.63159C13.9798 5.63599 4.03636 6.66668 4.03636 6.66668C4.03636 6.66668 5.21572 7.56393 6.05454 8C7.04842 8.51668 8.74545 9 8.74545 9Z" fill="#F8E9E9"/>
</svg>
