<svg width="66" height="32" viewBox="0 0 66 32" fill="none" xmlns="http://www.w3.org/2000/svg">
<path d="M12.899 0.303036L8.57861 0.929259L8.64728 3.59649C8.49248 4.39601 8 5.99695 8 5.99695L8.64728 7.56715L11.3279 8.85362L40.0251 8.6872L51.3893 9L63.8005 8.85362L66 8.15278C66 8.15278 65.3716 6.24865 65.0574 5.41495C64.7432 4.58121 66 1.85859 66 1.85859L63.0527 0.120041C63.0527 0.120041 51.5742 0.250124 45.4332 0.302998C39.2924 0.355872 39.2807 0.108072 33.0024 0.0146827C26.7241 -0.0785904 12.899 0.303036 12.899 0.303036Z" fill="#F8E9E9"/>
<path d="M54.0166 18.7643L58.4114 18.2772L58.3416 16.2027C58.499 15.5809 59 14.3357 59 14.3357L58.3416 13.1144L55.6147 12.1139L26.4227 12.2433L14.8626 12L2.23744 12.1139L-1.21905e-07 12.659C-1.21905e-07 12.659 0.639259 14.1399 0.958831 14.7884C1.27847 15.4368 -1.21905e-07 17.5544 -1.21905e-07 17.5544L2.99809 18.9066C2.99809 18.9066 14.6746 18.8055 20.9214 18.7643C27.1681 18.7232 27.18 18.9159 33.5665 18.9886C39.953 19.0611 54.0166 18.7643 54.0166 18.7643Z" fill="#F8E9E9"/>
<path d="M13.1247 31.3396L9.64448 30.3198L8.62916 28.6711C8.4787 27.8414 8.00005 26.1801 8.00005 26.1801L8.61782 24.154L11.2232 22.819L39.1143 22.9917L50.1594 22.6671L57.9537 22L65.0001 22.819C65.0001 22.819 64.0242 25.8046 63.7189 26.6698C63.4135 27.5349 64.3597 30.0779 64.3597 30.0779L61.4952 31.882C61.4952 31.882 50.339 31.747 44.3706 31.6922C38.4022 31.6373 38.3909 31.8945 32.2889 31.9914C26.187 32.0882 13.1247 31.3396 13.1247 31.3396Z" fill="#F8E9E9"/>
</svg>
