<svg width="49" height="49" viewBox="0 0 49 49" fill="none" xmlns="http://www.w3.org/2000/svg">
<path d="M10.99 3.67837L7.49229 1.06622L5.65483 3.0008C4.98002 3.45669 3.49975 4.24048 3.49975 4.24048L2.84715 5.80848L3.83298 8.61366L24.2426 28.7879L32.0572 37.0449L40.9367 45.7174L42.9875 46.7771C42.9875 46.7771 43.8896 44.9863 44.257 44.1746C44.6243 43.3629 47.4382 42.3264 47.4382 42.3264L46.5835 39.013C46.5835 39.013 38.3749 30.9884 33.9953 26.6835C29.6156 22.3787 29.7826 22.1952 25.4092 17.6897C21.0358 13.1844 10.99 3.67837 10.99 3.67837Z" fill="#F8E9E9"/>
<path d="M10.2278 44.5974L7.04581 46.3372L5.16202 45.8893C4.46896 45.409 2.95577 44.5728 2.95577 44.5728L1.95996 42.7033L2.85824 39.917L22.7024 20.3171L30.2829 12.2776L35.3226 6.29446L40.8842 1.89105C40.8842 1.89105 42.3053 4.69219 42.7012 5.51985C43.097 6.34758 45.5643 7.47665 45.5643 7.47665L44.8145 10.7779C44.8145 10.7779 36.8304 18.571 32.5713 22.7526C28.3122 26.934 28.486 27.1239 24.2398 31.5072C19.9935 35.8903 10.2278 44.5974 10.2278 44.5974Z" fill="#F8E9E9"/>
</svg>
