<svg width="100" height="100" viewBox="0 0 100 100" fill="none" xmlns="http://www.w3.org/2000/svg"><rect width="100" height="100" rx="50" fill="#6C5151"/><path d="M58 56.077L86.275 51l-2.937 8.704-16.412 1.395 2.246 6.528 13.418-1.451-.75 8.648-13.417.725 1.497 6.528 13.418-2.901-2.246 8.648L60.188 90 58 56.077zM37.266 85.642L22 90l.73-38.274L46.696 51l5.78 5.084.73 10.114-5.78 5.755-4.379-.727 13.078 9.387-11.618 6.482-10.16-15.142 2.92 13.689zm-3.648-20.897l10.889.726.73-6.481-4.378-2.18-7.24 1.454v6.481zM71.96 11.727L81 48.707 68.964 51l-1.47-12.308-8.987-1.566-1.525 11.58L45 49.434 56.982 11l14.977.727zM59.27 30.972l7.46.783-1.47-14.601h-2.995l-2.996 13.818zM45 21.736l-9.01 6.03-4.477-6.749h-4.478l-4.532 9.736 4.532 9.736h7.463l-.72-5.974H45l-4.477 12.723L19.518 51 12 30.753l6.744-17.26L35.99 12 45 21.736z" fill="#F8E9E9"/></svg>