<svg width="103" height="20" viewBox="0 0 103 20" fill="none" xmlns="http://www.w3.org/2000/svg">
<path d="M99.0892 2.83414L102.816 17.7401L97.8558 18.6849L97.2259 13.6987L93.4994 13.0951L92.8696 17.7401L87.9097 18.0551L92.8696 2.51923L99.0892 2.83414ZM93.8143 10.6021L96.911 10.917L96.3074 5.01231H95.0478L93.8143 10.6021Z" fill="#F8E9E9"/>
<path d="M84.5265 2.36194L87.2295 4.48762L86.9409 10.2086L83.608 12.0456L79.3829 10.8384L80.905 16.8743L74.2393 18.6851L74.8428 2.67685L84.5265 2.36194ZM79.3829 7.79423L84.2116 8.39782L84.5265 5.98347L83.0044 4.48762L79.3829 5.09121V7.79423Z" fill="#F8E9E9"/>
<path d="M60.313 4.51381L71.7812 2.41437L70.574 6.0359L63.9345 6.63949L64.853 9.34251L70.2591 8.73892L69.9704 12.3605L64.5381 12.6491L65.1417 15.3784L70.574 14.1712L69.6555 17.7928L61.2315 18.685L60.313 4.51381Z" fill="#F8E9E9"/>
<path d="M43.6034 18.2651L34.4184 17.6353L33.1587 2.44061L38.2236 3.07044L38.8534 16.0345L42.9736 15.7196L42.6586 2.75553L42.3175 2.44061H47.0675L46.7526 16.0345H50.5578L51.5025 3.07044L56.5674 2.75553L55.3078 15.0897L57.8533 15.7196L57.5122 19.2099L54.6779 19.5248L54.9928 17.9502L43.6034 18.58V18.2651Z" fill="#F8E9E9"/>
<path d="M19.3118 4.51381L30.7799 2.41437L29.5728 6.0359L22.9333 6.63949L23.8518 9.34251L29.2579 8.73892L28.9692 12.3605L23.5369 12.6491L24.1405 15.3784L29.5728 14.1712L28.6543 17.7928L20.2303 18.685L19.3118 4.51381Z" fill="#F8E9E9"/>
<path d="M6.3508 17.9502L0 18.685L1.49585 0.761046L15.3259 0L15.6933 7.47925L16.8217 18.685H11.232L11.5994 2.9917L7.11184 2.6243L6.3508 17.9502Z" fill="#F8E9E9"/>
</svg>
